<?xml version="1.0" standalone="no"?>
<!DOCTYPE svg PUBLIC "-//W3C//DTD SVG 20010904//EN"
 "http://www.w3.org/TR/2001/REC-SVG-20010904/DTD/svg10.dtd">
<svg version="1.0" xmlns="http://www.w3.org/2000/svg"
 width="720.000000pt" height="720.000000pt" viewBox="0 0 720.000000 720.000000"
 preserveAspectRatio="xMidYMid meet">

<g transform="translate(0.000000,720.000000) scale(0.100000,-0.100000)"
fill="#000000" stroke="none">
<path d="M0 3600 l0 -3600 3600 0 3600 0 0 3600 0 3600 -3600 0 -3600 0 0
-3600z m3745 1812 c291 -63 513 -194 677 -401 124 -155 198 -366 198 -564 l0
-67 -232 2 -233 3 -7 85 c-3 47 -11 105 -18 129 -46 172 -192 325 -366 386
-241 84 -640 68 -826 -32 -66 -36 -162 -124 -193 -178 -65 -111 -91 -277 -61
-394 56 -218 204 -322 671 -472 493 -158 596 -193 670 -227 287 -133 450 -262
549 -433 130 -225 152 -602 51 -852 -101 -247 -342 -460 -635 -560 -264 -90
-655 -109 -963 -46 -447 91 -770 366 -861 734 -13 50 -36 234 -36 281 0 12 41
14 234 14 l234 0 6 -67 c22 -219 93 -357 235 -452 128 -86 255 -124 465 -141
314 -26 585 41 742 184 104 93 157 195 174 333 21 162 -25 301 -135 408 -135
132 -257 183 -963 409 -280 90 -493 195 -642 319 -116 95 -185 205 -236 373
-25 82 -27 103 -28 274 -1 164 2 194 22 263 72 251 254 462 507 590 105 53
283 100 455 121 19 2 130 2 245 0 158 -2 232 -8 300 -22z"/>
</g>
</svg>
